<svg xmlns="http://www.w3.org/2000/svg" xmlns:xlink="http://www.w3.org/1999/xlink" width="310.99" height="221.541" viewBox="0 0 310.99 221.541"><defs><style>.a{fill:#252223;}.a,.l{opacity:0.1;}.b,.c{fill:#fff;}.b{opacity:0.3;}.c{opacity:0.4;}.d{fill:#38d39f;}.e,.f{fill:none;stroke:#535461;stroke-miterlimit:10;}.f{stroke-width:2px;}.g{opacity:0.25;}.h{fill:#535461;}.i{opacity:0.5;}.j{fill:url(#a);}.k{fill:#3a384d;}.m{fill:#bec7de;}.n{fill:#be7c5e;}.o{fill:#7faff2;}.p{fill:#723647;}.q{fill:#252a62;}.r{fill:#f3ad55;}.s{fill:#fbdca3;}.t{fill:#383f4d;}</style><linearGradient id="a" x1="-0.013" y1="0.424" x2="0.96" y2="0.424" gradientUnits="objectBoundingBox"><stop offset="0" stop-color="gray" stop-opacity="0.251"/><stop offset="0.54" stop-color="gray" stop-opacity="0.122"/><stop offset="1" stop-color="gray" stop-opacity="0.102"/></linearGradient></defs><path class="a" d="M490.99,669.009c-2.318,1.195-4.747,2.227-7.139,3.239-8.852,3.734-17.84,7.507-27.347,8.79-17.863,2.393-36.293-4.118-53.84-.055-14.7,3.392-26.855,13.787-41.215,18.417a66.962,66.962,0,0,1-20.634,3h-.905c-.863,0-1.722-.033-2.585-.065a138.732,138.732,0,0,1-21.21-2.66c-22-4.232-44.386-11.99-61.2-26.272C303.88,664.448,404.754,650.716,490.99,669.009Z" transform="translate(-211.803 -480.853)"/><path class="b" d="M296.256,81.063V60.228H283.885V81.063h-14.65V48.833H258.492V24.742H249.7V0H231.47V24.742h-8.79V48.833H212.263V19.859H206.4V5.209h-3.581v14.65H181.986v92.458H166.034V102.55h-9.767v9.767H140.315V81.063H111.666V60.228H99.295V81.063h-.651v40.043H85.621V97.667H69.995v23.44H56.972V48.833H46.88V24.742H9.767V48.833H0V176.126H310.906V81.063Z"/><rect class="c" width="14" height="7" transform="translate(5.99 57.041)"/><rect class="c" width="15" height="7" transform="translate(50.99 64.041) rotate(180)"/><rect class="c" width="14" height="7" transform="translate(5.99 72.041)"/><rect class="c" width="15" height="7" transform="translate(50.99 79.041) rotate(180)"/><rect class="c" width="14" height="8" transform="translate(5.99 87.041)"/><rect class="c" width="15" height="8" transform="translate(50.99 95.041) rotate(180)"/><rect class="c" width="14" height="7" transform="translate(5.99 103.041)"/><rect class="c" width="15" height="7" transform="translate(50.99 110.041) rotate(180)"/><rect class="c" width="14" height="8" transform="translate(5.99 117.041)"/><rect class="c" width="15" height="8" transform="translate(50.99 125.041) rotate(180)"/><rect class="c" width="14" height="9" transform="translate(5.99 132.041)"/><rect class="c" width="15" height="9" transform="translate(50.99 141.041) rotate(180)"/><rect class="c" width="14" height="8" transform="translate(5.99 148.041)"/><rect class="c" width="15" height="8" transform="translate(50.99 156.041) rotate(180)"/><rect class="c" width="33" height="3" transform="translate(60.99 129.041)"/><rect class="c" width="33" height="5" transform="translate(60.99 134.041)"/><rect class="c" width="33" height="4" transform="translate(60.99 141.041)"/><rect class="c" width="32" height="2" transform="translate(144.99 132.041)"/><rect class="c" width="32" height="5" transform="translate(144.99 136.041)"/><rect class="c" width="32" height="4" transform="translate(144.99 142.041)"/><rect class="c" width="33" height="5" transform="translate(60.99 146.041)"/><rect class="c" width="33" height="4" transform="translate(60.99 152.041)"/><rect class="c" width="33" height="4" transform="translate(60.99 158.041)"/><rect class="c" width="9" height="12" transform="translate(104.99 88.041)"/><rect class="c" width="9" height="12" transform="translate(133.99 100.041) rotate(180)"/><rect class="c" width="9" height="11" transform="translate(104.99 107.041)"/><rect class="c" width="9" height="11" transform="translate(133.99 118.041) rotate(180)"/><rect class="c" width="9" height="11" transform="translate(104.99 125.041)"/><rect class="c" width="9" height="11" transform="translate(133.99 136.041) rotate(180)"/><rect class="c" width="9" height="11" transform="translate(104.99 143.041)"/><rect class="c" width="9" height="11" transform="translate(133.99 154.041) rotate(180)"/><rect class="c" width="11" height="14" transform="translate(181.99 28.041)"/><rect class="c" width="11" height="15" transform="translate(181.99 49.041)"/><rect class="c" width="11" height="15" transform="translate(181.99 70.041)"/><rect class="c" width="11" height="15" transform="translate(181.99 92.041)"/><rect class="c" width="11" height="15" transform="translate(181.99 113.041)"/><rect class="c" width="11" height="16" transform="translate(181.99 134.041)"/><rect class="c" width="43.625" height="12.697" transform="translate(218.937 57.949)"/><rect class="c" width="44" height="12" transform="translate(218.99 85.041)"/><rect class="c" width="43.625" height="12.697" transform="translate(219.262 112.642)"/><rect class="c" width="43" height="11" transform="translate(219.99 141.041)"/><rect class="c" width="5" height="13" transform="translate(9.99 31.041)"/><rect class="c" width="15" height="19" transform="translate(295.99 88.041)"/><rect class="c" width="15" height="18" transform="translate(295.99 116.041)"/><rect class="c" width="15" height="19" transform="translate(295.99 143.041)"/><path class="d" d="M157.791,584.738S132.16,600.2,179.408,624.01c0,0,10.418-19.325-1.1-35.082a15.516,15.516,0,0,0-20.132-4.411Z" transform="translate(-141.621 -428.617)"/><path class="e" d="M173.08,588.3s21.933,16.782,21.321,39.6" transform="translate(-156.613 -432.505)"/><path class="f" d="M235.68,532.277s-8.031-27.269,1.507-47.339a43.082,43.082,0,0,0,3.48-27.021,72.245,72.245,0,0,0-3.825-12.7" transform="translate(-196.701 -336.006)"/><path class="d" d="M238.928,393.481c0,3.34-6.049,13.022-6.049,13.022s-6.052-9.692-6.052-13.022a6.052,6.052,0,1,1,12.1,0Z" transform="translate(-192.861 -296.934)"/><path class="d" d="M269.563,443.819c-1.817,2.806-12.163,7.651-12.163,7.651s.186-11.424,2-14.227a6.052,6.052,0,1,1,10.161,6.577Z" transform="translate(-213.482 -328.761)"/><path class="d" d="M263.66,536.6c-2.982,1.5-14.36.462-14.36.462s5.928-9.767,8.914-11.271A6.052,6.052,0,1,1,263.66,536.6Z" transform="translate(-208.019 -389.912)"/><path class="d" d="M246.684,611.012C244,613,232.61,613.9,232.61,613.9s4.19-10.629,6.879-12.615a6.052,6.052,0,1,1,7.2,9.732Z" transform="translate(-196.763 -440.46)"/><path class="d" d="M214.57,467.135c2.4,2.328,13.566,4.74,13.566,4.74S225.4,460.784,223,458.456a6.05,6.05,0,0,0-8.432,8.679Z" transform="translate(-183.359 -343.779)"/><path class="d" d="M192.014,550.9c2.982,1.507,14.36.466,14.36.466s-5.928-9.767-8.91-11.271a6.051,6.051,0,1,0-5.45,10.806Z" transform="translate(-167.139 -399.553)"/><path class="d" d="M186.374,638.172c2.686,1.986,14.077,2.884,14.077,2.884s-4.193-10.629-6.882-12.615a6.052,6.052,0,1,0-7.2,9.732Z" transform="translate(-163.924 -458.778)"/><path class="g" d="M238.928,393.481c0,3.34-6.049,13.022-6.049,13.022s-6.052-9.692-6.052-13.022a6.052,6.052,0,1,1,12.1,0Z" transform="translate(-192.861 -296.934)"/><path class="g" d="M269.563,443.819c-1.817,2.806-12.163,7.651-12.163,7.651s.186-11.424,2-14.227a6.052,6.052,0,1,1,10.161,6.577Z" transform="translate(-213.482 -328.761)"/><path class="g" d="M263.66,536.6c-2.982,1.5-14.36.462-14.36.462s5.928-9.767,8.914-11.271A6.052,6.052,0,1,1,263.66,536.6Z" transform="translate(-208.019 -389.912)"/><path class="g" d="M246.684,611.012C244,613,232.61,613.9,232.61,613.9s4.19-10.629,6.879-12.615a6.052,6.052,0,1,1,7.2,9.732Z" transform="translate(-196.763 -440.46)"/><path class="g" d="M214.57,467.135c2.4,2.328,13.566,4.74,13.566,4.74S225.4,460.784,223,458.456a6.05,6.05,0,0,0-8.432,8.679Z" transform="translate(-183.359 -343.779)"/><path class="g" d="M192.014,550.9c2.982,1.507,14.36.466,14.36.466s-5.928-9.767-8.91-11.271a6.051,6.051,0,1,0-5.45,10.806Z" transform="translate(-167.139 -399.553)"/><path class="g" d="M186.374,638.172c2.686,1.986,14.077,2.884,14.077,2.884s-4.193-10.629-6.882-12.615a6.052,6.052,0,1,0-7.2,9.732Z" transform="translate(-163.924 -458.778)"/><path class="f" d="M1005.73,510.647s-8.031-27.269,1.507-47.339a43.083,43.083,0,0,0,3.483-27.021,72.8,72.8,0,0,0-3.825-12.7" transform="translate(-716.057 -321.417)"/><path class="d" d="M1009.014,372.142c0,3.34-6.052,13.022-6.052,13.022s-6.052-9.692-6.052-13.022a6.052,6.052,0,1,1,12.1,0Z" transform="translate(-712.24 -282.637)"/><path class="d" d="M1039.613,422.193c-1.817,2.806-12.163,7.651-12.163,7.651s.189-11.424,2.005-14.227a6.05,6.05,0,1,1,10.157,6.576Z" transform="translate(-732.838 -314.176)"/><path class="d" d="M1033.714,514.973c-2.985,1.5-14.364.462-14.364.462s5.932-9.767,8.914-11.271a6.052,6.052,0,0,1,5.45,10.809Z" transform="translate(-727.375 -375.322)"/><path class="d" d="M1016.737,589.382c-2.689,1.986-14.077,2.884-14.077,2.884s4.193-10.629,6.879-12.615a6.052,6.052,0,1,1,7.2,9.731Z" transform="translate(-716.118 -425.871)"/><path class="d" d="M984.619,445.472c2.4,2.328,13.566,4.74,13.566,4.74s-2.735-11.092-5.131-13.419a6.052,6.052,0,1,0-8.436,8.68Z" transform="translate(-702.714 -329.167)"/><path class="d" d="M962.1,529.268c2.985,1.507,14.363.466,14.363.466s-5.928-9.767-8.914-11.271a6.052,6.052,0,1,0-5.45,10.806Z" transform="translate(-686.521 -384.965)"/><path class="d" d="M956.427,616.542c2.689,1.986,14.077,2.884,14.077,2.884s-4.193-10.626-6.879-12.615a6.052,6.052,0,1,0-7.2,9.731Z" transform="translate(-683.282 -444.189)"/><path class="f" d="M897.48,585.946s-4.317-14.65.811-25.439a23.17,23.17,0,0,0,1.872-14.52,38.979,38.979,0,0,0-2.058-6.817" transform="translate(-644.034 -399.37)"/><path class="d" d="M899.231,511.485c0,1.8-3.256,7.006-3.256,7.006s-3.256-5.209-3.256-7.006a3.256,3.256,0,0,1,6.511,0Z" transform="translate(-641.97 -378.502)"/><path class="d" d="M915.687,538.64c-.977,1.507-6.537,4.112-6.537,4.112s.1-6.14,1.078-7.647a3.256,3.256,0,0,1,5.46,3.536Z" transform="translate(-653.051 -395.708)"/><path class="d" d="M912.519,588.368c-1.605.807-7.719.247-7.719.247s3.187-5.248,4.789-6.055a3.256,3.256,0,0,1,2.93,5.808Z" transform="translate(-650.117 -428.439)"/><path class="d" d="M903.393,628.012c-1.442,1.068-7.563,1.55-7.563,1.55s2.253-5.71,3.7-6.778a3.256,3.256,0,1,1,3.864,5.228Z" transform="translate(-644.068 -455.259)"/><path class="d" d="M885.9,550.692c1.3,1.25,7.289,2.546,7.289,2.546s-1.468-5.961-2.758-7.211a3.256,3.256,0,1,0-4.532,4.665Z" transform="translate(-636.63 -403.3)"/><path class="d" d="M874.26,596.058c1.6.807,7.719.251,7.719.251s-3.187-5.248-4.792-6.059a3.256,3.256,0,0,0-2.93,5.808Z" transform="translate(-628.394 -433.625)"/><path class="d" d="M871.2,642.994c1.442,1.068,7.563,1.55,7.563,1.55s-2.263-5.714-3.7-6.781a3.256,3.256,0,0,0-3.868,5.232Z" transform="translate(-626.631 -465.485)"/><path class="a" d="M339.7,150.932h-2.24a1.569,1.569,0,1,0,0-3.135H319.316a1.569,1.569,0,1,0,0,3.135h2.24a1.569,1.569,0,0,0,0,3.138h-3.135a1.569,1.569,0,1,0,0,3.135h18.143a1.569,1.569,0,1,0,0-3.135H339.7a1.569,1.569,0,0,0,0-3.138Z" transform="translate(-253.531 -135.409)"/><path class="a" d="M585.7,271.932h-2.24a1.569,1.569,0,1,0,0-3.135H565.317a1.569,1.569,0,1,0,0,3.135h2.24a1.569,1.569,0,1,0,0,3.138h-3.135a1.569,1.569,0,1,0,0,3.135h18.143a1.569,1.569,0,1,0,0-3.135H585.7a1.569,1.569,0,1,0,0-3.138Z" transform="translate(-419.445 -217.017)"/><path class="a" d="M1004.7,113.932h-2.24a1.569,1.569,0,1,0,0-3.135H984.316a1.569,1.569,0,1,0,0,3.135h2.24a1.569,1.569,0,0,0,0,3.138h-3.135a1.569,1.569,0,1,0,0,3.135h18.143a1.569,1.569,0,1,0,0-3.135h3.135a1.569,1.569,0,0,0,0-3.138Z" transform="translate(-702.036 -110.455)"/><path class="h" d="M826.988,636.567a.488.488,0,1,0-.488-.488A.488.488,0,0,0,826.988,636.567Z" transform="translate(-597.308 -464.4)"/><g class="i" transform="translate(85.326 43.37)"><path class="j" d="M469.218,343.824l-4.73-22.268h.485l-.075-.378h.137l-2.448-12.046s.124-12.583.719-17.45c.436-3.552,1.126-8.077.622-11.886a3.581,3.581,0,0,0,.192-.326,3.434,3.434,0,0,0,.371-1.3,5.368,5.368,0,0,0-.41-3.142L469,271.954c.111,0,.225.023.326.029a1.042,1.042,0,0,0-.081-.212,10.939,10.939,0,0,0,10.828-7.113,7.254,7.254,0,0,0,1.585,1.706c1.325.993,3.412,1.214,4.515-.02a3.8,3.8,0,0,0,.791-1.7c.065-.28.111-.566.15-.85.625-3.327-.745-6.759-2.513-9.676a24.813,24.813,0,0,0-8.871-9.011,15.492,15.492,0,0,0-12.335-1.432c-4.034,1.38-8.1,5.128-8.464,9.376-.182,2.171.078,3.177-.371,5.31-.225,1.061.26,3.129.254,4.3a5.3,5.3,0,0,0-.078.651,11.352,11.352,0,0,0,.83,3.783c-5.32.267-19.309,1.345-23.349,5.453-5.027,5.108-17.352,6.934-17.352,6.934l-20.526,4.131-7.162,3.041.081.326-.143.062s.254.947.619,2.2a9.3,9.3,0,0,0-2.959,5.534,16.179,16.179,0,0,0,1.214,8.686s7.068,12.98,7.556,18.215l8.92,17.8c-.765,1.527-8.409,16.958-9.724,25.6a17.652,17.652,0,0,0-.212,1.878s-.049.456-.169,1.214c-.524,3.2-2.181,11.069-6.228,14.748h0l.052.046h0l-.117.114.091.078c-1.214,2.321.54,5.466.54,5.466l2,8.914,2.233.361,2.35-.957,1.3,2.5s10.141,1.628,13.022,1.533-2.442-4.978-4.307-6.426c-1.035-.8-1.846-4.092-2.36-6.863a4.317,4.317,0,0,0,.726-.752s-1.24-6.511,2.494-15.444c1.592-3.8,3.3-8.175,4.753-11.941.778,5.059,1.6,10.271,2.2,13.83a32.552,32.552,0,0,1,.492,10.073,5.983,5.983,0,0,1-.433,1.8.453.453,0,0,1,.033.052.926.926,0,0,1-.062.133c.02.033.039.062.055.094-2.038,2.331.085,6.133.085,6.133l2,8.888,2.233.361,2.351-.957,1.3,2.5s10.141,1.628,13.022,1.533-2.442-4.978-4.31-6.426c-1.455-1.13-2.464-7.195-2.839-9.8.27-.026.42-.046.42-.046l-.029-.179h.062l-1.276-7.462c-2.181-1.878-1.878-28.564-1.878-28.564a21.025,21.025,0,0,1-1.172,2.565c.111-.449.521-1.719,1.472-4.424a26.617,26.617,0,0,0,1.234-4.779c1.032-6.352-.892-10.235-.892-10.235.127-1.276-1.218-6.234-2.806-11.515l4.991-9.728a3.979,3.979,0,0,0,2.175.179l3.78-6.837s7.813-4.655,10.05-4.294c2.08.326,8.6-1.1,11.118-3.815a5.16,5.16,0,0,0,.495-.635c2.028-3.109,1.195,16.232,1.195,16.232l-1.084,6.7-.059.371,3.233.065L463.67,347.5s.479,8.862,9.135,10.831S469.218,343.824,469.218,343.824Zm-52.034-30.2c-.469-1.445-.879-2.692-1.188-3.627l1.611-1.257s.2.169.544.44Z" transform="translate(-384.594 -242.969)"/></g><path class="k" d="M479.41,673.839s1.1,9.3,2.93,10.711,7.009,6.156,4.2,6.26-12.7-1.491-12.7-1.491l-1.279-2.442-2.279.931-2.178-.352-1.953-8.689s-2.741-4.909,1.117-6.892S479.41,673.839,479.41,673.839Z" transform="translate(-353.638 -488.496)"/><path class="l" d="M446.125,422.8s7.667,22.818,7.377,25.748c0,0,2.81,5.665-.29,14.471s-.326,2-.326,2-.293,26.009,1.83,27.842l1.244,7.273s-11.954,1.419-13.966-2.256c0,0,1.556-2.725.033-11.72s-4.46-28.815-4.46-28.815l-7.957-45.21Z" transform="translate(-329.628 -313.688)"/><path class="m" d="M446.215,422.242s7.667,22.831,7.377,25.761c0,0,2.81,5.665-.29,14.471s-.326,2-.326,2-.293,26.012,1.83,27.842l1.244,7.276S444.1,501,442.084,497.328c0,0,1.556-2.725.033-11.72s-4.463-28.825-4.463-28.825L429.7,411.57Z" transform="translate(-329.689 -313.311)"/><path class="l" d="M432.051,412.816l7.8,44.321s2.93,19.83,4.463,28.825-.033,11.72-.033,11.72c.586,1.071,2.009,1.706,3.734,2.074-2.422-.283-4.607-.944-5.368-2.337,0,0,1.559-2.725.036-11.72s-4.463-28.825-4.463-28.825L430.26,411.66Z" transform="translate(-330.067 -313.371)"/><path class="k" d="M405.969,664.829s1.1,9.3,2.93,10.711,7.009,6.156,4.2,6.26-12.7-1.491-12.7-1.491l-1.279-2.442-2.279.934-2.178-.355-1.953-8.689s-2.741-4.909,1.113-6.892S405.969,664.829,405.969,664.829Z" transform="translate(-304.105 -482.42)"/><path class="l" d="M446.125,422.8s7.667,22.818,7.377,25.748c0,0,2.81,5.665-.29,14.471s-.326,2-.326,2-.293,26.009,1.83,27.842l1.244,7.273s-11.954,1.419-13.966-2.256c0,0,1.556-2.725.033-11.72s-4.46-28.815-4.46-28.815l-7.957-45.21Z" transform="translate(-329.628 -313.688)"/><path class="l" d="M394.733,378.706s-8.533,3.275-3.943,15.184c0,0,6.892,12.651,7.371,17.756l8.725,17.417s-9.3,18.413-9.718,26.722c0,0-1.244,11.154-6.264,15.737,0,0,10.8,9.19,14.819,3.884,0,0-1.208-6.335,2.435-15.054s7.963-20.478,7.963-20.478,10.447-7.061,3.487-21.588l-7.813-32.344-.127-7.279-5.993-2.084Z" transform="translate(-302.532 -289.712)"/><path class="l" d="M393.533,379.056S385,382.331,389.59,394.24c0,0,6.889,12.654,7.367,17.759l8.725,17.417s-9.3,18.41-9.711,26.722c0,0-1.244,11.15-6.267,15.737,0,0,10.8,9.19,14.823,3.884,0,0-1.211-6.339,2.432-15.054s7.963-20.491,7.963-20.491,10.45-7.061,3.49-21.588L410.6,386.283,410.471,379l-5.99-2.084Z" transform="translate(-301.722 -289.941)"/><path class="m" d="M393.623,378.519S385.09,381.8,389.68,393.7c0,0,5.062,9.295,6.807,15.164a45.258,45.258,0,0,0,2.93,7.322l6.355,12.7s-9.3,18.413-9.715,26.722c0,0-1.244,11.154-6.267,15.737,0,0,10.8,9.19,14.823,3.884,0,0-1.211-6.335,2.432-15.054s7.963-20.491,7.963-20.491,10.45-7.061,3.49-21.588l-7.813-32.344-.127-7.279-5.99-2.084Z" transform="translate(-301.783 -289.584)"/><path class="l" d="M393.623,378.5l10.955-2.139,1.429.5L395.8,378.847s-8.533,3.275-3.943,15.184c0,0,5.059,9.295,6.807,15.164a45.251,45.251,0,0,0,2.93,7.322l6.358,12.7s-9.317,18.407-9.718,26.715c0,0-1.247,11.154-6.267,15.737,0,0,4.652,3.959,8.985,5.18-4.779-.1-11.163-5.534-11.163-5.534,5.023-4.584,6.267-15.737,6.267-15.737.41-8.308,9.715-26.722,9.715-26.722l-6.355-12.7a45.255,45.255,0,0,1-2.93-7.322c-1.745-5.86-6.807-15.164-6.807-15.164C385.09,381.777,393.623,378.5,393.623,378.5Z" transform="translate(-301.783 -289.563)"/><path class="n" d="M489.41,443.99l-6.794,13.234s1.992,17.632-1.813,18.133-2.279-19.351-2.279-19.351l3.663-16.906Z" transform="translate(-362.413 -331.878)"/><path class="n" d="M608.632,477.619l4.857,22.932s11.922,16.073,3.483,14.152-8.9-10.571-8.9-10.571L599.93,476.2Z" transform="translate(-444.5 -356.9)"/><path class="n" d="M607.761,319.362l-12.013,7.553-4.288-11.489s9.943.677,11.1-3.044S607.761,319.362,607.761,319.362Z" transform="translate(-438.787 -245.884)"/><path class="n" d="M464.078,233.551l-.768-3.291-11.84.693L446.7,250.1l8.884.319,4.974-7.758,2.712-7.566Z" transform="translate(-301.274 -155.297)"/><path class="l" d="M465.494,328.078l.977-5.518s-21.913.273-26.813,5.251-16.913,6.762-16.913,6.762L402.736,338.6l-7,2.966s1.973,7.39,2.819,7.9,10.294-7.273,10.294-7.273l3.581.951L400.773,355.4,422.3,376.563l.4-11.661,2.757-2.155s6.553,5.534,9.477,4.694l3.685-6.664s7.618-4.538,9.8-4.187c2.028.326,8.383-1.071,10.838-3.718a4.643,4.643,0,0,0,.469-.6c1.979-3.031,1.166,15.822,1.166,15.822l-1.113,6.892,11.873.244-2.383-11.74s.12-12.264.7-17.01,1.628-11.274-.5-15.343l-4.18,3.978-7.273,11.674,2.761-10.164Z" transform="translate(-306.785 -253.278)"/><path class="o" d="M465.731,326.661,464.692,321s-19.888.417-24.788,5.394-16.929,6.759-16.929,6.759l-20.009,4.027L396,340.149s1.973,7.39,2.819,7.9,10.3-7.27,10.3-7.27l3.581.951-11.661,12.26,21.523,21.161.4-11.665,2.767-2.158s6.553,5.535,9.477,4.7l3.685-6.664s7.576-4.538,9.767-4.177c2.028.326,8.383-1.074,10.838-3.721a4.642,4.642,0,0,0,.469-.6c1.979-3.031,1.165,15.825,1.165,15.825l-1.113,6.892,11.873.244-2.383-11.74s.121-12.267.7-17.01,1.628-11.277-.5-15.344l-4.18,3.962-7.283,11.665L461,335.2Z" transform="translate(-306.96 -252.226)"/><path class="l" d="M506.014,360.53s-11.854,10-13.094,15.383" transform="translate(-372.327 -278.887)"/><path class="l" d="M550.633,387s-9.116,6.9-10.743,11.29" transform="translate(-404.006 -296.74)"/><path class="l" d="M489,418.92s-.856,4.141-1.026,6.348" transform="translate(-368.989 -318.268)"/><path class="l" d="M445.565,423.329S431.911,411.071,430,411.322" transform="translate(-329.891 -313.141)"/><path class="l" d="M619.842,313.023c1.11-3.562,4.861,6.094,5.176,6.925a10.035,10.035,0,0,1-1.065-.117,10.613,10.613,0,0,1-7.084-4.489C618.332,314.881,619.5,314.156,619.842,313.023Z" transform="translate(-455.925 -246.316)"/><circle class="n" cx="10.659" cy="10.659" r="10.659" transform="translate(158.927 52.125)"/><path class="l" d="M611.155,268.962a12.659,12.659,0,0,0,2.891,3.835c1.292.964,3.327,1.182,4.4-.02a3.712,3.712,0,0,0,.768-1.66c.788-3.356-.589-6.837-2.377-9.8a24.278,24.278,0,0,0-8.647-8.79,15.068,15.068,0,0,0-12.026-1.4c-3.933,1.348-7.162,4.948-7.488,9.09-.179,2.116.355,4.275-.085,6.355a21.2,21.2,0,0,0-.775,3.223c-.1,2.054,1.3,3.965,1.175,6.02a14.959,14.959,0,0,1-1.123,3.623c-.977,2.91-.449,6.078-.651,9.138s-1.54,6.492-4.47,7.4a6.813,6.813,0,0,0,9.024-3.464,15.748,15.748,0,0,1,1.156-3.1c1.029-1.563,3.168-2.181,4.03-3.842s.114-3.682-.83-5.294-2.123-3.233-2.142-5.1a4.486,4.486,0,0,1,2.93-4.174,12.65,12.65,0,0,1,2.783-.43,14.738,14.738,0,0,0,6.459-2.464C608.664,266.475,609.335,265.967,611.155,268.962Z" transform="translate(-432.913 -204.642)"/><path class="p" d="M611.351,267.542a12.675,12.675,0,0,0,2.891,3.838c1.293.967,3.327,1.182,4.4-.02a3.728,3.728,0,0,0,.768-1.66c.788-3.356-.589-6.837-2.377-9.8a24.253,24.253,0,0,0-8.647-8.79,15.081,15.081,0,0,0-12.026-1.4c-3.933,1.345-7.891,5-8.24,9.142-.179,2.116.078,3.1-.361,5.173-.228,1.084.3,3.256.247,4.356-.1,2.054,1.3,3.965,1.175,6.02a14.883,14.883,0,0,1-1.123,3.62c-.977,2.914-.449,6.081-.651,9.142s-1.54,6.488-4.47,7.393a6.813,6.813,0,0,0,9.024-3.464,15.782,15.782,0,0,1,1.156-3.1c1.029-1.563,3.168-2.181,4.03-3.842s.114-3.685-.827-5.3-2.126-3.23-2.145-5.1a4.486,4.486,0,0,1,2.93-4.17,12.651,12.651,0,0,1,2.783-.43,14.777,14.777,0,0,0,6.459-2.464C608.867,265.054,609.538,264.55,611.351,267.542Z" transform="translate(-433.041 -203.687)"/><rect class="q" width="5.87" height="1.286" rx="0.643" transform="translate(161.35 70.858) rotate(-170.82)"/><path class="r" d="M573.638,572.736a9.392,9.392,0,0,0,9.474,9.116h.71a2.4,2.4,0,0,1,1.68.677,2.325,2.325,0,0,1,.68,1.192,2.168,2.168,0,0,1,.072.563v9a9.015,9.015,0,0,0,1.426,4.883,12.882,12.882,0,0,1,2.123,6.947h0a4.343,4.343,0,0,0,4.421,4.343,4.431,4.431,0,0,0,4.252-4.48v-2.25l1.185.137v2.256a4.34,4.34,0,0,0,4.418,4.336,4.431,4.431,0,0,0,4.255-4.48v-1.139c1.182.495,7.885.495,9.744,0l.5-.039v1.3A4.343,4.343,0,0,0,623,609.459a4.431,4.431,0,0,0,4.252-4.48V603.11l.394-.036v2.051a4.343,4.343,0,0,0,4.421,4.333,4.415,4.415,0,0,0,4.232-3.871,5.354,5.354,0,0,0,.039-.609v-9.415a14.425,14.425,0,0,0-3.076-8.92,2.676,2.676,0,0,1-.075-3.158c2.207-3.233,5.473-8.689,5.365-12.557a4.231,4.231,0,0,0-1.032-2.862c-.042-.049-.088-.094-.13-.14a4.832,4.832,0,0,0-8.285,3.864,12.929,12.929,0,0,1-.326,4.574,14.175,14.175,0,0,1-.889,2.451,4.167,4.167,0,0,1-4.255,2.367,14.538,14.538,0,0,0-1.778-.107H603.628a5.121,5.121,0,0,1-4.851-3.474,4.949,4.949,0,0,1-.277-1.651V561.758A2.761,2.761,0,0,0,595.655,559a2.7,2.7,0,0,0-1.9.889,2.959,2.959,0,0,0-.768,1.986,1.459,1.459,0,0,1-1.462,1.462H582.9a9.265,9.265,0,0,0-9.265,9.4Z" transform="translate(-426.766 -412.741)"/><path class="s" d="M740,701.406a4.343,4.343,0,0,0,4.284,3.256,4.414,4.414,0,0,0,4.232-3.871C745.86,700.085,742.22,699.6,740,701.406Z" transform="translate(-538.969 -507.945)"/><path class="s" d="M712.1,701.406a4.346,4.346,0,0,0,4.288,3.256,4.411,4.411,0,0,0,4.213-3.871C717.976,700.085,714.346,699.6,712.1,701.406Z" transform="translate(-520.152 -507.945)"/><path class="s" d="M654,701.406a4.343,4.343,0,0,0,4.284,3.256,4.415,4.415,0,0,0,4.232-3.871C659.86,700.085,656.227,699.6,654,701.406Z" transform="translate(-480.967 -507.945)"/><path class="s" d="M623.7,701.406a4.343,4.343,0,0,0,4.288,3.256,4.411,4.411,0,0,0,4.213-3.871C629.576,700.085,625.937,699.6,623.7,701.406Z" transform="translate(-460.531 -507.945)"/><path class="s" d="M742.94,591.762a61.444,61.444,0,0,0,9.767-5.437,4.232,4.232,0,0,0-1.032-2.862c-.042-.049-.088-.094-.13-.14a4.832,4.832,0,0,0-8.285,3.864A12.929,12.929,0,0,1,742.94,591.762Z" transform="translate(-540.952 -428.138)"/><path class="s" d="M685.485,626.846s-8.435,10.62-22.235-.026" transform="translate(-487.206 -458.485)"/><path class="s" d="M645.212,566.27a13.409,13.409,0,0,0,0,14.976" transform="translate(-473.504 -417.647)"/><path class="s" d="M612.39,636.51s4.515,5.606.059,10.066" transform="translate(-452.903 -465.02)"/><path class="l" d="M611.18,622.436c.326.326.221.618.326,1.081l14.65-3.838a5.658,5.658,0,0,1-2.09-2.279C622.314,618.751,618.84,621.036,611.18,622.436Z" transform="translate(-452.087 -452.131)"/><path class="t" d="M610.08,621.089a2.324,2.324,0,0,1,.68,1.192l14.289-3.724a5.106,5.106,0,0,1-1.719-2.406C621.572,617.514,617.74,619.682,610.08,621.089Z" transform="translate(-451.345 -451.288)"/><path class="l" d="M624.351,618.57a27.7,27.7,0,0,1-11.961,4.4" transform="translate(-452.903 -452.921)"/><path class="r" d="M624.351,617.36a27.7,27.7,0,0,1-11.961,4.4" transform="translate(-452.903 -452.104)"/><path class="l" d="M595.211,607.724s-7.488,2.367-9.461-5.124Z" transform="translate(-434.936 -442.15)"/><path class="s" d="M595.211,606.514s-7.488,2.367-9.461-5.124Z" transform="translate(-434.936 -441.334)"/><ellipse class="t" cx="0.788" cy="1.38" rx="0.788" ry="1.38" transform="translate(146.084 157.69)"/><path class="l" d="M753.836,659.415,752.26,646.8s4.73,7.488,1.576,12.615" transform="translate(-547.238 -471.96)"/><path class="s" d="M751.05,646.8s4.73,7.488,1.576,12.615Z" transform="translate(-546.422 -471.96)"/></svg>