<svg xmlns="http://www.w3.org/2000/svg" width="200" height="171.148" viewBox="0 0 200 171.148"><defs><style>.a{fill:#f2f2f2;}.b{fill:#e6e6e6;}.c{fill:#3f3d56;}.d{fill:#54a0ff;}.e{opacity:0.1;}.f{fill:#fff;}.g{fill:#2f2e41;}.h{fill:#ffb9b9;}</style></defs><ellipse class="a" cx="38.5" cy="7.5" rx="38.5" ry="7.5" transform="translate(123 156.148)"/><path class="b" d="M254.8,505.528c.229.534.472,1.075.721,1.606l-.534.251c-.252-.537-.5-1.083-.729-1.623Z" transform="translate(-243.033 -405.46)"/><path class="b" d="M337.71,251.357c.337.718.66,1.449.962,2.174l-.545.226c-.451-1.085-.95-2.179-1.477-3.237l.528-.263Q337.45,250.8,337.71,251.357Zm-2.242-4.265-.509.3c-.6-1.021-1.237-2.033-1.9-3.007l.488-.332C334.216,245.036,334.863,246.058,335.468,247.091Zm4.473,9.806c.383,1.134.732,2.293,1.035,3.446l-.57.15c-.3-1.139-.645-2.286-1.024-3.406Zm-8.521-15.749-.464.365c-.73-.928-1.5-1.843-2.3-2.718l.437-.4c.8.886,1.583,1.81,2.322,2.749Zm10.353,22.7c.224,1.173.41,2.369.552,3.556l-.585.07c-.141-1.173-.325-2.356-.546-3.516Zm-15.181-28.034-.409.425c-.851-.818-1.741-1.617-2.645-2.374l.379-.452C324.831,234.182,325.731,234.989,326.592,235.817ZM342.631,271c.06,1.2.079,2.408.057,3.6l-.59-.011c.022-1.181,0-2.379-.056-3.561Zm-21.548-39.793-.347.477c-.956-.694-1.947-1.363-2.947-1.99l.313-.5C319.113,229.826,320.116,230.5,321.083,231.205ZM342.5,278.2c-.1,1.192-.251,2.395-.437,3.574l-.583-.092c.183-1.166.329-2.355.432-3.534Zm-27.506-50.808-.278.52c-1.042-.557-2.115-1.086-3.192-1.57l.242-.538C312.852,226.29,313.938,226.825,314.991,227.388Zm26.388,57.917c-.266,1.164-.575,2.335-.92,3.48l-.565-.17c.341-1.132.647-2.29.909-3.441Zm-32.946-60.87-.2.553c-1.108-.41-2.244-.788-3.377-1.123l.167-.566C306.165,223.638,307.314,224.02,308.434,224.435Zm30.872,67.759c-.422,1.118-.887,2.236-1.384,3.322l-.536-.245c.491-1.074.951-2.179,1.368-3.284ZM301.534,222.4l-.128.576c-1.152-.256-2.329-.476-3.5-.653l.088-.583C299.178,221.919,300.368,222.141,301.534,222.4Zm34.782,76.335c-.57,1.05-1.183,2.094-1.822,3.1l-.5-.316c.632-1,1.238-2.028,1.8-3.067Zm-41.9-77.411-.048.588c-1.179-.1-2.375-.153-3.557-.168l.008-.59C292.016,221.168,293.226,221.225,294.418,221.323ZM332.464,304.8c-.707.962-1.457,1.911-2.228,2.822l-.45-.381c.762-.9,1.5-1.839,2.2-2.79ZM287.219,221.23l.033.589c-1.181.067-2.375.175-3.548.323l-.074-.585C284.817,221.407,286.025,221.3,287.219,221.23Zm40.6,89.057c-.833.857-1.707,1.695-2.6,2.492l-.393-.44c.88-.788,1.743-1.616,2.567-2.463Zm-47.744-88.157.114.579c-1.159.228-2.325.5-3.465.807l-.153-.569C277.726,222.635,278.9,222.361,280.077,222.129Zm42.386,92.955c-.943.733-1.923,1.443-2.914,2.11l-.329-.49c.98-.659,1.949-1.361,2.881-2.086ZM273.133,224l.192.558c-1.115.384-2.233.813-3.322,1.273l-.23-.543C270.875,224.823,272.006,224.389,273.133,224ZM316.5,319.1c-1.033.6-2.1,1.166-3.175,1.693l-.26-.53c1.062-.521,2.118-1.084,3.139-1.674Zm-49.721-91.772c-1.056.533-2.106,1.107-3.12,1.709l-.3-.507c1.026-.608,2.088-1.19,3.155-1.728Zm-6.117,3.626c-.974.672-1.935,1.385-2.858,2.119l-.367-.461c.933-.743,1.905-1.464,2.89-2.143Zm-5.562,4.43c-.87.8-1.723,1.635-2.536,2.489l-.427-.406c.822-.864,1.685-1.711,2.565-2.517Zm-4.895,5.148c-.753.91-1.484,1.858-2.171,2.816L247.55,243c.7-.969,1.434-1.927,2.2-2.848Zm-4.145,5.774c-.622,1.006-1.217,2.045-1.767,3.087l-.521-.275c.556-1.054,1.158-2.105,1.787-3.122Zm-3.319,6.288c-.479,1.079-.927,2.19-1.331,3.3l-.554-.2c.409-1.123.862-2.245,1.346-3.337Zm-2.435,6.683c-.328,1.137-.621,2.3-.871,3.451l-.577-.125c.252-1.167.548-2.341.88-3.49Zm-1.5,6.954c-.17,1.171-.3,2.362-.392,3.539l-.588-.045c.091-1.19.224-2.394.4-3.579Zm-.54,7.1c-.009,1.183.024,2.381.1,3.56l-.589.036c-.074-1.193-.107-2.4-.1-3.6Zm.44,7.1c.154,1.171.352,2.352.586,3.509l-.578.117c-.237-1.171-.437-2.365-.593-3.549Zm1.413,6.97c.314,1.138.671,2.28,1.063,3.4l-.557.2c-.4-1.128-.757-2.283-1.075-3.434Z" transform="translate(-230.697 -194.046)"/><path class="b" d="M513.813,613.259l.223.546c-.552.225-1.11.441-1.659.644l-.2-.553C512.715,613.7,513.267,613.481,513.813,613.259Z" transform="translate(-434.774 -485.551)"/><path class="c" d="M620.606,327.428c-.059-.1-1.447-2.414-1.928-7.228-.441-4.416-.158-11.86,3.7-22.244a44.857,44.857,0,0,0-1.777-35.7l.444-.258a39.4,39.4,0,0,1,3.717,10.53,45.941,45.941,0,0,1-1.9,25.607c-7.3,19.637-1.873,28.934-1.817,29.025Z" transform="translate(-513.838 -224.412)"/><circle class="d" cx="3" cy="3" r="3" transform="translate(101 30.148)"/><circle class="c" cx="3.5" cy="3.5" r="3.5" transform="translate(111 42.148)"/><ellipse class="d" cx="3" cy="3.5" rx="3" ry="3.5" transform="translate(104 50.148)"/><circle class="d" cx="3.5" cy="3.5" r="3.5" transform="translate(113 57.148)"/><circle class="c" cx="3" cy="3" r="3" transform="translate(102 68.148)"/><path class="c" d="M632.954,475.868s-3.335-8.21,6.671-14.368Z" transform="translate(-524.17 -372.728)"/><path class="c" d="M580.07,491.837s-1.518-8.731-13.267-8.656Z" transform="translate(-475.388 -388.846)"/><path class="c" d="M494.334,278.312a.509.509,0,0,0-.363.942,15.114,15.114,0,0,1,4.506,3.844c5.752,7.3,3.744,18.476-4.486,24.96a20.274,20.274,0,0,1-12.895,4.455,19.639,19.639,0,0,0,17.3-3.809c8.23-6.484,10.238-17.659,4.486-24.96A15.475,15.475,0,0,0,494.334,278.312Z" transform="translate(-411.671 -236.53)"/><path class="d" d="M505.484,283.532c5.752,7.3,3.744,18.476-4.486,24.96a20.565,20.565,0,0,1-10.476,4.348,20.313,20.313,0,0,0,12.577-4.458c8.23-6.484,10.238-17.658,4.486-24.96a15.233,15.233,0,0,0-6.209-4.666l-.038-.009a.509.509,0,0,0-.359.942A15.114,15.114,0,0,1,505.484,283.532Z" transform="translate(-418.678 -236.853)"/><path class="d" d="M219.229,138l3.4,5.881,3.4,5.881H212.438l3.4-5.881Z" transform="translate(-157.934 -102.594)"/><path class="d" d="M267.5,138l3.4,5.881,3.4,5.881H260.708l3.4-5.881Z" transform="translate(-193.819 -102.594)"/><path class="c" d="M225.235,149.956l2.095,3.629,2.095,3.628h-8.38l2.095-3.628Z" transform="translate(-164.333 -111.483)"/><path class="c" d="M274.843,149.956l2.095,3.629,2.095,3.628h-8.379l2.095-3.628Z" transform="translate(-201.213 -111.483)"/><path class="c" d="M428.207,347.363a23.885,23.885,0,1,1-8.541-18.3A23.885,23.885,0,0,1,428.207,347.363Z" transform="translate(-336.835 -270.119)"/><path class="e" d="M444.425,329.06c-2,5.218-8.112,9.015-15.343,9.015s-13.345-3.8-15.343-9.015a23.883,23.883,0,0,1,30.687,0Z" transform="translate(-361.594 -270.119)"/><ellipse class="c" cx="16.033" cy="12.716" rx="16.033" ry="12.716" transform="translate(51.454 40.644)"/><circle class="f" cx="2.986" cy="2.986" r="2.986" transform="translate(56.982 48.605)"/><circle class="f" cx="2.986" cy="2.986" r="2.986" transform="translate(72.021 48.605)"/><circle class="c" cx="1.88" cy="1.88" r="1.88" transform="translate(58.088 49.711)"/><circle class="c" cx="1.88" cy="1.88" r="1.88" transform="translate(73.127 49.711)"/><circle class="d" cx="0.553" cy="0.553" r="0.553" transform="translate(63.581 55.239)"/><path class="d" d="M440.059,332.362c-1.085.492-1.8,1.495-2.942,1.926a5.393,5.393,0,0,1-3.614.067c-.2-.067-.29.253-.088.32a5.7,5.7,0,0,0,3.629-.009,5.489,5.489,0,0,0,1.547-.822,8.963,8.963,0,0,1,1.636-1.2C440.421,332.56,440.252,332.274,440.059,332.362Z" transform="translate(-376.138 -276.711)"/><path class="d" d="M440.78,331.853a6.307,6.307,0,0,0-1.589.6,5.449,5.449,0,0,1-1.832.515,5.383,5.383,0,0,1-3.427-.867c-.179-.117-.346.17-.167.286a5.688,5.688,0,0,0,3.423.925,5.443,5.443,0,0,0,1.713-.371,9.983,9.983,0,0,1,1.967-.769C441.078,332.137,440.989,331.817,440.78,331.853Z" transform="translate(-376.426 -276.342)"/><path class="d" d="M443.617,330.888c-.844.8-1.2,1.948-2.091,2.719a5.378,5.378,0,0,1-3.462,1.3.166.166,0,0,0,0,.332,5.7,5.7,0,0,0,3.406-1.162,5.478,5.478,0,0,0,1.154-1.19,10.633,10.633,0,0,1,1.228-1.765c.156-.147-.079-.381-.235-.235Z" transform="translate(-379.56 -275.592)"/><circle class="d" cx="0.553" cy="0.553" r="0.553" transform="translate(69.403 55.239)"/><path class="d" d="M483.088,332.649a8.686,8.686,0,0,1,1.619,1.183,5.511,5.511,0,0,0,1.564.835,5.686,5.686,0,0,0,3.629.009c.2-.067.115-.387-.088-.32a5.391,5.391,0,0,1-3.614-.067c-1.14-.431-1.857-1.433-2.942-1.926-.193-.088-.362.2-.167.286Z" transform="translate(-413.088 -276.711)"/><path class="d" d="M481.615,332.173a9.043,9.043,0,0,1,1.888.737,5.489,5.489,0,0,0,1.793.4,5.688,5.688,0,0,0,3.423-.925c.178-.116.012-.4-.167-.286a5.365,5.365,0,0,1-3.427.867,5.527,5.527,0,0,1-1.832-.515,6.345,6.345,0,0,0-1.589-.6C481.495,331.817,481.405,332.137,481.615,332.173Z" transform="translate(-411.967 -276.342)"/><path class="d" d="M482.4,331.123a10.708,10.708,0,0,1,1.228,1.765,5.494,5.494,0,0,0,1.154,1.19,5.7,5.7,0,0,0,3.406,1.162.166.166,0,0,0,0-.332,5.362,5.362,0,0,1-3.462-1.3c-.892-.774-1.247-1.922-2.091-2.719C482.478,330.742,482.243,330.976,482.4,331.123Z" transform="translate(-412.601 -275.593)"/><ellipse class="c" cx="4.423" cy="2.543" rx="4.423" ry="2.543" transform="translate(55.545 97.701)"/><ellipse class="c" cx="4.423" cy="2.543" rx="4.423" ry="2.543" transform="translate(70.583 97.701)"/><ellipse class="d" cx="3.649" cy="2.101" rx="3.649" ry="2.101" transform="translate(63.396 53.581)"/><path class="a" d="M210.5,115.5V258.15H401.641V115.5Zm24.63,1.8a3.079,3.079,0,1,1-3.079,3.079A3.079,3.079,0,0,1,235.13,117.3Zm-18.473,6.158a3.079,3.079,0,1,1,3.079-3.079A3.079,3.079,0,0,1,216.658,123.454Zm6.158-3.079a3.079,3.079,0,1,1,3.079,3.079A3.079,3.079,0,0,1,222.815,120.375Zm105.961,97.751H225.894V141.67H328.776Z" transform="translate(-210.5 -115.5)"/><rect class="f" width="6" height="1" transform="translate(181 2.148)"/><rect class="f" width="6" transform="translate(181 5.148)"/><rect class="f" width="6" height="1" transform="translate(181 7.148)"/><rect class="f" width="47" height="2" transform="translate(134 25.148)"/><rect class="f" width="47" height="2" transform="translate(134 33.148)"/><rect class="f" width="47" height="3" transform="translate(134 40.148)"/><rect class="f" width="47" height="2" transform="translate(134 49.148)"/><rect class="f" width="47" height="2" transform="translate(134 57.148)"/><rect class="f" width="47" height="3" transform="translate(134 64.148)"/><rect class="f" width="47" height="2" transform="translate(134 72.148)"/><rect class="f" width="47" height="2" transform="translate(134 81.148)"/><rect class="f" width="47" height="3" transform="translate(134 88.148)"/><rect class="f" width="47" height="3" transform="translate(134 96.148)"/><circle class="f" cx="3" cy="3" r="3" transform="translate(19 105.148)"/><circle class="f" cx="3" cy="3" r="3" transform="translate(29 105.148)"/><circle class="f" cx="3" cy="3" r="3" transform="translate(40 105.148)"/><rect class="d" width="47" height="13" transform="translate(134 123.148)"/><path class="g" d="M824.459,554.946l.519,18.178,5.54,21.294s-1.212,3.636-.346,4.5,4.848,2.424,4.848,2.424l-3.289-45.358Z" transform="translate(-666.939 -442.199)"/><path class="g" d="M826.2,724.848s1.976,4.346-.79,4.742-15.542,1.449-14.751-.79,10.4-4.346,10.4-4.346Z" transform="translate(-656.655 -568.217)"/><path class="g" d="M839.836,492.032s-2.078,11.253-3.462,13.157.693,15.754.693,15.754,3.116,19.909,1.731,23.025-1.039,2.078-.866,3.809.519,3.116,0,4.674a13.7,13.7,0,0,0-.693,2.251c-.173.866,0,5.54,0,5.54s-7.444,2.6-8.656-1.212c0,0,1.731-2.424,1.212-4.328a23.057,23.057,0,0,1-.866-5.886v-3.635L820.966,515.4l-1.9-10.734s.519-10.907,2.424-11.945S839.836,492.032,839.836,492.032Z" transform="translate(-662.926 -395.386)"/><path class="g" d="M828.559,753.174s2.6,5.713-1.039,6.232-20.429,1.9-19.39-1.039,13.677-5.713,13.677-5.713Z" transform="translate(-654.765 -589.183)"/><circle class="h" cx="6.925" cy="6.925" r="6.925" transform="translate(163.578 32.944)"/><path class="h" d="M869.052,281.942l-.129,8.844-8.49.029s2.155-6.923,1.19-8.371S869.052,281.942,869.052,281.942Z" transform="translate(-693.683 -239.013)"/><path class="c" d="M825.631,320.93s6.059-7.791,10.734-4.5,6.406,11.08,6.406,11.08l-1.039,21.814s-2.6,3.116-1.039,5.194,2.424,1.558,1.212,3.116-2.6,2.77-2.077,3.289-.519.866-.519.866l-18.351.519s.519-.692-1.039-2.77.346-4.847,0-5.886-.693.173-.866-2.251S825.631,320.93,825.631,320.93Z" transform="translate(-662.916 -264.275)"/><path class="h" d="M834.117,505.395s-.346,4.328-2.943,5.021a2.037,2.037,0,0,1-2.237-.956,4.252,4.252,0,0,1-.136-4.77l.641-1.026Z" transform="translate(-669.671 -404.074)"/><path class="c" d="M862.2,300.441a30.273,30.273,0,0,1,0,3.982,1.656,1.656,0,0,0,0,1.558,2.864,2.864,0,0,1-.173,2.424c-.346.173.693,1.731.346,2.77a7.511,7.511,0,0,1-.865,1.731c-.173.346-.452.967-.452.967s-5.088-10.835-9.243-8.238a30.108,30.108,0,0,1-7.444,3.462S846.616,296.978,862.2,300.441Z" transform="translate(-681.738 -252.529)"/><path class="c" d="M844.784,333.5s5.54.519,5.194,7.791.519,18.7.519,18.7-9.522,14.542-11.08,15.581-1.731.866-1.558,1.731.346,1.558-.346,2.251a5.978,5.978,0,0,1-1.385,1.039s-5.54-1.9-5.021-3.636,2.943-4.5,2.943-4.5,4.155-6.752,4.328-7.791.173-.866.693-1.385,1.9-2.6,1.9-3.636v-3.289l-1.451-17.578a5.1,5.1,0,0,1,1.351-3.947A4.409,4.409,0,0,1,844.784,333.5Z" transform="translate(-671.856 -277.538)"/><path class="g" d="M848.109,234.943a2.822,2.822,0,0,1-2.615-.6,2.135,2.135,0,0,1-.423-2.557,3.372,3.372,0,0,1,1.994-1.268,17.653,17.653,0,0,1,5.243-.8,4.707,4.707,0,0,1,2.458.511c.359.217.663.515,1.018.739a12.7,12.7,0,0,0,2.152.833,5.521,5.521,0,0,1,3.146,3.332,6.654,6.654,0,0,1,.306,1.565,8.576,8.576,0,0,1-.748,4.251c-.966,2.106-2.8,3.877-3.064,6.18-.99-.831-1.28-2.224-2.046-3.265a4.233,4.233,0,0,0-2.311-1.568,1.345,1.345,0,0,1-.7-.313,1.159,1.159,0,0,1-.219-.631l-.475-3.421a2.948,2.948,0,0,0-.762-1.914,2.707,2.707,0,0,0-1.134-.492,18.3,18.3,0,0,0-2.961-.483" transform="translate(-682.072 -200.415)"/><path class="e" d="M875.339,446.5l-9.719,12.612S874.57,451.631,875.339,446.5Z" transform="translate(-697.54 -361.577)"/><path class="e" d="M640.552,276.575l.092,11.911L635,296.953l4.618-9.493Z" transform="translate(-472.081 -205.616)"/></svg>