<svg xmlns="http://www.w3.org/2000/svg" width="250" height="160" viewBox="0 0 250 160"><defs><style>.a{fill:#f2f2f2;}.b{fill:#3f3d56;}.c{fill:#54a0ff;}.d{opacity:0.1;}.e{fill:#444053;}.f{fill:#f6f8fb;}.g{fill:#ffc1c7;}.h{opacity:0.05;}.i{fill:#575a89;}.j{fill:#ff6584;}.k{opacity:0.03;}.l{fill:none;stroke:#3f3d56;stroke-miterlimit:10;stroke-width:4px;}.m{fill:#57b894;}.n{fill:#656380;}.o{opacity:0.2;}</style></defs><g transform="translate(0 0)"><path class="a" d="M892.349,563.826,868.1,522.133a.775.775,0,0,0-1.34,0L842.5,563.826a.761.761,0,0,0-.008.776.773.773,0,0,0,.679.385h7.237a.774.774,0,0,1,.774.768v8.907a.769.769,0,0,0,.769.768h9.442a.771.771,0,0,0,.774-.768v-4.31a.769.769,0,0,1,.772-.766h8.977a.771.771,0,0,1,.774.766v4.3a.771.771,0,0,0,.774.768h9.44a.778.778,0,0,0,.776-.768v-8.907a.771.771,0,0,1,.774-.768h7.237a.775.775,0,0,0,.661-.388.762.762,0,0,0,0-.763Zm-33.813,4.614a.784.784,0,0,1-.549.232h-3.405a.768.768,0,1,1,0-1.536h3.405a.775.775,0,0,1,.548.224.762.762,0,0,1,.226.544A.772.772,0,0,1,858.536,568.44Zm22.282,0a.772.772,0,0,1-.547.232h-3.4a.768.768,0,1,1,0-1.536h3.4a.772.772,0,0,1,.719.473.761.761,0,0,1-.171.838Z" transform="translate(-660.709 -425.096)"/><path class="a" d="M262.453,565.422,238.2,523.732a.78.78,0,0,0-1.343,0L215.9,559.741a63.867,63.867,0,0,0,8.778,8.984h3.408a.774.774,0,0,1,.715.474.779.779,0,0,1-.715,1.069h-1.441a37.539,37.539,0,0,0,5.613,3.465v-1.775a.773.773,0,0,1,.777-.768h8.974a.771.771,0,0,1,.774.768v4.3a.71.71,0,0,0,.072.323.767.767,0,0,0,.7.446H253a.767.767,0,0,0,.615-.309.732.732,0,0,0,.154-.464v-8.907a.771.771,0,0,1,.774-.768h7.236a.773.773,0,0,0,.676-.382A.761.761,0,0,0,262.453,565.422Zm-16.035,3.528a.782.782,0,0,1,.55-.232h3.405a.768.768,0,1,1,0,1.536h-3.405a.775.775,0,0,1-.548-.224.763.763,0,0,1-.226-.544A.772.772,0,0,1,246.417,568.95Zm-15.235-15.428a.775.775,0,0,1-.548-.224.763.763,0,0,1-.226-.544v-5.834a.763.763,0,0,1,.226-.544.775.775,0,0,1,.548-.224H243.87a.771.771,0,0,1,.774.768v5.834a.771.771,0,0,1-.774.768Z" transform="translate(-180.747 -426.325)"/><path class="a" d="M515.213,329.624H485.191v-6.442a1.533,1.533,0,0,0-.454-1.09,1.557,1.557,0,0,0-1.1-.451h-8.815V314.79a.974.974,0,0,0-.978-.97H462.49a.974.974,0,0,0-.978.97v6.862H451.145a1.547,1.547,0,0,0-1.553,1.541v6.426H420.973a.314.314,0,0,0-.313.313v85.529a.315.315,0,0,0,.313.313H440a.315.315,0,0,0,.316-.313V403.956a.319.319,0,0,1,.318-.313h8.034a.317.317,0,0,1,.316.313v11.506a.317.317,0,0,0,.313.313h37.595a.317.317,0,0,0,.316-.313V403.956a.317.317,0,0,1,.313-.313h8.036a.317.317,0,0,1,.318.313v11.506a.317.317,0,0,0,.313.313h19.027a.315.315,0,0,0,.313-.313V329.938a.315.315,0,0,0-.313-.313Zm-78.307,70.022a.312.312,0,0,1-.311.311h-11.75a.315.315,0,0,1-.318-.311v-3.982a.317.317,0,0,1,.318-.313h11.75a.314.314,0,0,1,.311.313Zm0-10.29a.312.312,0,0,1-.311.313h-11.75a.317.317,0,0,1-.225-.091.312.312,0,0,1-.093-.222v-3.98a.312.312,0,0,1,.093-.222.317.317,0,0,1,.225-.091h11.75a.312.312,0,0,1,.311.313Zm0-10.288a.315.315,0,0,1-.311.313h-11.75a.317.317,0,0,1-.318-.313v-3.982a.317.317,0,0,1,.318-.313h11.75a.315.315,0,0,1,.311.313Zm0-10.29a.312.312,0,0,1-.311.313h-11.75a.317.317,0,0,1-.225-.091.312.312,0,0,1-.093-.222V364.8a.312.312,0,0,1,.093-.222.317.317,0,0,1,.225-.091h11.75a.312.312,0,0,1,.311.313Zm0-10.288a.315.315,0,0,1-.311.313h-11.75a.317.317,0,0,1-.318-.313v-3.982a.315.315,0,0,1,.318-.311h11.75a.312.312,0,0,1,.311.311Zm0-10.288a.312.312,0,0,1-.311.311h-11.75a.315.315,0,0,1-.318-.311V344.22a.317.317,0,0,1,.318-.313h11.75a.314.314,0,0,1,.311.313Zm0-10.29a.312.312,0,0,1-.311.313h-11.75a.317.317,0,0,1-.225-.091.312.312,0,0,1-.093-.222v-3.98a.312.312,0,0,1,.093-.222.317.317,0,0,1,.225-.091h11.75a.312.312,0,0,1,.311.313Zm27.86,61.732a.315.315,0,0,1-.318.311H452.7a.312.312,0,0,1-.313-.311v-3.98a.315.315,0,0,1,.313-.313h11.75a.317.317,0,0,1,.318.313Zm0-10.29a.312.312,0,0,1-.093.222.317.317,0,0,1-.225.091H452.7a.315.315,0,0,1-.222-.092.31.31,0,0,1-.091-.221v-3.978a.31.31,0,0,1,.091-.221.315.315,0,0,1,.222-.092h11.75a.317.317,0,0,1,.225.091.312.312,0,0,1,.093.222Zm0-10.288a.317.317,0,0,1-.318.313H452.7a.315.315,0,0,1-.313-.3v-3.989a.315.315,0,0,1,.313-.313h11.75a.317.317,0,0,1,.318.313Zm0-10.29a.312.312,0,0,1-.093.222.317.317,0,0,1-.225.091H452.7a.315.315,0,0,1-.222-.092.31.31,0,0,1-.091-.221V364.8a.31.31,0,0,1,.091-.221.314.314,0,0,1,.222-.092h11.75a.317.317,0,0,1,.225.091.312.312,0,0,1,.093.222Zm0-10.288a.317.317,0,0,1-.318.313H452.7a.314.314,0,0,1-.313-.313v-3.98a.312.312,0,0,1,.313-.311h11.75a.315.315,0,0,1,.318.311Zm0-10.288a.315.315,0,0,1-.318.311H452.7a.312.312,0,0,1-.313-.3V344.22a.315.315,0,0,1,.313-.313h11.75a.317.317,0,0,1,.318.313Zm0-10.29a.312.312,0,0,1-.093.222.317.317,0,0,1-.225.091H452.7a.315.315,0,0,1-.222-.092.31.31,0,0,1-.091-.221v-3.978a.31.31,0,0,1,.091-.221.314.314,0,0,1,.222-.092h11.75a.317.317,0,0,1,.225.091.312.312,0,0,1,.093.222ZM483.8,399.642a.31.31,0,0,1-.093.221.315.315,0,0,1-.223.09H471.727a.317.317,0,0,1-.318-.311v-3.978a.319.319,0,0,1,.318-.313h11.748a.315.315,0,0,1,.316.313Zm0-10.29a.31.31,0,0,1-.092.222.315.315,0,0,1-.224.091H471.727a.317.317,0,0,1-.318-.313v-3.975a.317.317,0,0,1,.318-.313h11.748a.315.315,0,0,1,.224.091.31.31,0,0,1,.092.222Zm0-10.288a.314.314,0,0,1-.316.313H471.727a.319.319,0,0,1-.318-.313v-3.978a.319.319,0,0,1,.318-.313h11.748a.315.315,0,0,1,.316.313Zm0-10.29a.31.31,0,0,1-.092.222.315.315,0,0,1-.224.091H471.727a.317.317,0,0,1-.318-.313V364.8a.317.317,0,0,1,.318-.313h11.748a.315.315,0,0,1,.224.091.31.31,0,0,1,.092.222Zm0-10.288a.315.315,0,0,1-.316.313H471.727a.319.319,0,0,1-.318-.313v-3.978a.317.317,0,0,1,.318-.311h11.748a.315.315,0,0,1,.223.09.31.31,0,0,1,.093.221Zm0-10.288a.31.31,0,0,1-.093.221.315.315,0,0,1-.223.09H471.727a.317.317,0,0,1-.318-.311V344.22a.319.319,0,0,1,.318-.313h11.748a.314.314,0,0,1,.316.313Zm0-10.29a.31.31,0,0,1-.092.222.315.315,0,0,1-.224.091H471.727a.317.317,0,0,1-.318-.313v-3.975a.317.317,0,0,1,.318-.313h11.748a.315.315,0,0,1,.224.091.31.31,0,0,1,.092.222Zm27.86,61.732a.317.317,0,0,1-.318.311h-11.75a.313.313,0,0,1-.222-.09.307.307,0,0,1-.091-.221v-3.975a.31.31,0,0,1,.091-.221.315.315,0,0,1,.222-.092h11.75a.319.319,0,0,1,.318.313Zm0-10.29a.317.317,0,0,1-.318.313h-11.75a.315.315,0,0,1-.222-.092.31.31,0,0,1-.091-.221v-3.973a.31.31,0,0,1,.091-.221.315.315,0,0,1,.222-.092h11.75a.317.317,0,0,1,.318.313Zm0-10.288a.319.319,0,0,1-.318.313h-11.75a.312.312,0,0,1-.313-.3v-3.989a.31.31,0,0,1,.091-.221.315.315,0,0,1,.222-.092h11.75a.319.319,0,0,1,.318.313Zm0-10.29a.317.317,0,0,1-.318.313h-11.75a.315.315,0,0,1-.222-.092.31.31,0,0,1-.091-.221V364.8a.31.31,0,0,1,.091-.221.315.315,0,0,1,.222-.092h11.75a.317.317,0,0,1,.318.313Zm0-10.288a.319.319,0,0,1-.318.313h-11.75a.315.315,0,0,1-.222-.092.31.31,0,0,1-.091-.221v-3.975a.308.308,0,0,1,.091-.221.312.312,0,0,1,.222-.09h11.75a.317.317,0,0,1,.318.311Zm0-10.288a.317.317,0,0,1-.318.311h-11.75a.31.31,0,0,1-.313-.3V344.22a.31.31,0,0,1,.091-.221.315.315,0,0,1,.222-.092h11.75a.319.319,0,0,1,.318.313Zm0-10.29a.317.317,0,0,1-.318.313h-11.75a.315.315,0,0,1-.222-.092.31.31,0,0,1-.091-.221v-3.973a.31.31,0,0,1,.091-.221.314.314,0,0,1,.222-.092h11.75a.317.317,0,0,1,.318.313Z" transform="translate(-337.617 -265.423)"/><path class="a" d="M151.793,293.731a17.274,17.274,0,0,0,1.35-1.968l-9.512-1.55,10.291.077a17.091,17.091,0,0,0,.334-13.63l-13.8,7.1,12.726-9.283a17.4,17.4,0,0,0-30.753,1.507,17.1,17.1,0,0,0,2.118,17.755,17.127,17.127,0,0,0-1.976,3.138l12.335,6.354-13.161-4.384A17.111,17.111,0,0,0,124.552,315a17.038,17.038,0,0,0-3.108,6.138,170.649,170.649,0,0,0,8.163,19.455,17.249,17.249,0,0,0,5.379,1.952,5.924,5.924,0,0,0-.341,2,5.64,5.64,0,0,0,.73,2.873,5.539,5.539,0,0,0-.739,2.451h0a105.749,105.749,0,0,0,7.04,10.443,5.256,5.256,0,0,0-.571-1.392,5.857,5.857,0,0,0,0-5.746,5.857,5.857,0,0,0,0-5.746,5.64,5.64,0,0,0,.753-2.873,5.852,5.852,0,0,0-.351-2.026,17.3,17.3,0,0,0,12.918-10.9,17.1,17.1,0,0,0-2.627-16.62,17.1,17.1,0,0,0,0-21.272Z" transform="translate(-107.916 -228.648)"/><path class="a" d="M1057.29,368.4l-.7-.114h.688a29.256,29.256,0,0,0-1.422-7.73l-2.447,1.26,2.3-1.685a29.649,29.649,0,0,0-11.4-14.837A17.2,17.2,0,0,0,1037.5,371.8a17.181,17.181,0,0,0-1.976,3.145l12.349,6.382-13.161-4.393a17.178,17.178,0,0,0,2.807,16.19A17.212,17.212,0,0,0,1045.212,420c.936-2.2,1.845-4.5,2.7-6.872.753-2.089,1.471-4.217,2.147-6.366a194.351,194.351,0,0,0,4.949-19.16,100.453,100.453,0,0,0,2.339-17.87C1057.321,369.28,1057.309,368.839,1057.29,368.4Z" transform="translate(-807.344 -289.59)"/><ellipse class="b" cx="124.427" cy="5.802" rx="124.427" ry="5.802" transform="translate(0 148.396)"/><path class="c" d="M432.451,404.416c-2.325-4-11.928-2.82-21.426,2.627a45.672,45.672,0,0,0-4.767,3.135,41.339,41.339,0,0,0-82.44,1.03,44.329,44.329,0,0,0-6.081-4.177c-9.479-5.435-19.085-6.612-21.408-2.616s3.508,11.65,13.006,17.1c6.154,3.525,12.34,5.259,16.571,4.964a41.033,41.033,0,0,0,12.588,18.334c-8.331,1.16-14.456,5.027-14.456,9.627,0,5.509,8.8,9.979,19.646,9.979s19.646-4.47,19.646-9.979v-.044q.875.037,1.757.039t1.756-.039v.044c0,5.509,8.8,9.979,19.646,9.979s19.646-4.47,19.646-9.979c0-4.6-6.125-8.468-14.456-9.627a41.026,41.026,0,0,0,12.578-18.3c4.137-.107,9.683-1.826,15.2-4.99C428.961,416.066,434.79,408.41,432.451,404.416Z" transform="translate(-241.975 -310.439)"/><path class="d" d="M296.331,504.465c2.325-4,11.928-2.82,21.426,2.627a44.28,44.28,0,0,1,5.99,4.094,13.1,13.1,0,0,0,.087-2.019A44.351,44.351,0,0,0,317.752,505c-9.493-5.447-19.1-6.623-21.422-2.627a4.365,4.365,0,0,0-.4,3.11A3.7,3.7,0,0,1,296.331,504.465Z" transform="translate(-241.976 -408.4)"/><path class="d" d="M793.954,504.465c-2.325-4-11.928-2.82-21.429,2.627a28.431,28.431,0,0,0-4.818,3.166,12.537,12.537,0,0,1-.086-2.019A28.481,28.481,0,0,1,772.533,505c9.51-5.447,19.1-6.623,21.429-2.627a4.365,4.365,0,0,1,.4,3.11A3.7,3.7,0,0,0,793.954,504.465Z" transform="translate(-603.427 -408.4)"/><ellipse class="e" cx="4.285" cy="5.567" rx="4.285" ry="5.567" transform="translate(107.753 89.477)"/><ellipse class="e" cx="4.285" cy="5.567" rx="4.285" ry="5.567" transform="translate(129.891 89.477)"/><path class="b" d="M530.367,576.924c0,7.993-13.455,21.458-27.032,21.458s-26.525-13.769-26.525-21.755,12.674-.7,26.24-.7S530.367,568.929,530.367,576.924Z" transform="translate(-380.634 -464.368)"/><path class="f" d="M490.818,596.16s24.406,5.391,44.906.153c0,0,2.51,0,.8,2.878a4.618,4.618,0,0,1-1.871,1.745c-3.953,2-18.582,7.925-41.976.374a4.584,4.584,0,0,1-3.05-3.1C489.356,597.234,489.476,596.3,490.818,596.16Z" transform="translate(-390.362 -482.239)"/><path class="d" d="M456.11,377.546a41.177,41.177,0,0,1,41.239,38.562q.117-1.528.117-3.091a41.317,41.317,0,0,0-82.631,0c0,.819.029,1.625.076,2.439a41.189,41.189,0,0,1,41.2-37.91Z" transform="translate(-333.154 -310.116)"/><path class="b" d="M576.55,150.032a5.3,5.3,0,0,1-10.59,0v-.253a5.3,5.3,0,0,1,10.576,0A1.821,1.821,0,0,1,576.55,150.032Z" transform="translate(-448.933 -135.625)"/><path class="d" d="M576.55,160.333a5.3,5.3,0,0,1-10.59,0v-.253a8.41,8.41,0,0,1,10.576,0A1.821,1.821,0,0,1,576.55,160.333Z" transform="translate(-448.933 -145.926)"/><ellipse class="b" cx="8.361" cy="8.297" rx="8.361" ry="8.297" transform="translate(113.961 12.748)"/><path class="b" d="M562.4,144.974a5.27,5.27,0,0,1,4.594-5.208,5.31,5.31,0,0,0-5.166,2.382,5.22,5.22,0,0,0,0,5.652,5.31,5.31,0,0,0,5.166,2.382A5.27,5.27,0,0,1,562.4,144.974Z" transform="translate(-445.131 -131.727)"/><path class="b" d="M539.384,187.755a5.225,5.225,0,0,1-.891-6.865,5.24,5.24,0,0,0,2.188,9.063,5.321,5.321,0,0,0,5.247-1.611,5.056,5.056,0,0,0,.43-.555A5.324,5.324,0,0,1,539.384,187.755Z" transform="translate(-426.494 -163.343)"/><path class="g" d="M563.911,230.8a4.6,4.6,0,0,0-1.237.42c-.7.48-.671,1.5-.468,2.321a6.41,6.41,0,0,0,3.408,4.409,8.335,8.335,0,0,0,3.433.494c1.27-.014,2.7-.174,3.485-1.16a4.537,4.537,0,0,0,.713-1.731,13.694,13.694,0,0,0,.638-4.6,3.084,3.084,0,0,1-2.227-.369,4.6,4.6,0,0,1-1.006-2.156.543.543,0,0,0-.2-.306.6.6,0,0,0-.351-.053,13.96,13.96,0,0,1-2.407-.118c-.5-.065-1.724-.58-2.1-.146-.274.318-.1,1.276-.309,1.72a2.415,2.415,0,0,1-1.373,1.279Z" transform="translate(-445.96 -199.234)"/><path class="h" d="M563.911,230.8a4.6,4.6,0,0,0-1.237.42c-.7.48-.671,1.5-.468,2.321a6.41,6.41,0,0,0,3.408,4.409,8.335,8.335,0,0,0,3.433.494c1.27-.014,2.7-.174,3.485-1.16a4.537,4.537,0,0,0,.713-1.731,13.694,13.694,0,0,0,.638-4.6,3.084,3.084,0,0,1-2.227-.369,4.6,4.6,0,0,1-1.006-2.156.543.543,0,0,0-.2-.306.6.6,0,0,0-.351-.053,13.96,13.96,0,0,1-2.407-.118c-.5-.065-1.724-.58-2.1-.146-.274.318-.1,1.276-.309,1.72a2.415,2.415,0,0,1-1.373,1.279Z" transform="translate(-445.96 -199.234)"/><path class="e" d="M361.321,471.781a29.821,29.821,0,0,0-5.613.385,1.442,1.442,0,0,0-.907.464,1.292,1.292,0,0,0,.1,1.323,4.135,4.135,0,0,0,2.367,1.952,12.784,12.784,0,0,0,3.478.255,11.707,11.707,0,0,1,4.589,1.1,1.866,1.866,0,0,0,1.031.272c.517-.079.84-.592,1.031-1.075a13.037,13.037,0,0,0,.517-1.78c.271-1.144.309-3.4-1.275-3.713-.725-.139-1.579.357-2.276.5A17.059,17.059,0,0,1,361.321,471.781Z" transform="translate(-287.048 -386.075)"/><path class="e" d="M780.127,434.574a2.154,2.154,0,0,0,1.092-.831c.7-1.014.7-2.226,1.073-3.337.468-1.446,1.5-2.639,2.154-4.015a8.246,8.246,0,0,0,.781-3.945.7.7,0,0,0-.263-.508.706.706,0,0,0-.558-.142,3.96,3.96,0,0,0-2.243,1.527c-.723.928-1.2,2.033-1.937,2.95a29.609,29.609,0,0,1-2.664,2.495c-1.106,1.058-1.974,2.209-.987,3.583C777.379,433.479,778.488,435.108,780.127,434.574Z" transform="translate(-609.959 -348.332)"/><path class="i" d="M436.932,342.729a74.964,74.964,0,0,1-21.517,18.838,53.277,53.277,0,0,0-7.468,4.711,39.289,39.289,0,0,0-4.622,4.836,1.159,1.159,0,0,0-.327.594,1.132,1.132,0,0,0,.087.478c.468,1.369,1.01,2.855,2.259,3.6,3.237-4.642,9.669-5.841,14.6-8.649a65.291,65.291,0,0,0,6.495-4.493q4.584-3.4,9.372-6.524a26.2,26.2,0,0,1,6.724-3.451c5.145-1.527,10.759,0,15.511,2.506s8.937,5.932,13.593,8.6c6.329,3.62,13.39,5.755,20.381,7.86.25-1.666.4-3.3.758-4.948a21.011,21.011,0,0,1-5.022-1.6,29.873,29.873,0,0,1-5.279-2.606c-1.078-.724-2.058-1.587-3.125-2.321-2.325-1.625-5.019-2.646-7.374-4.221-3.069-2.052-5.443-4.955-8.249-7.348-1.223-1.042-2.524-1.987-3.826-2.929a14.8,14.8,0,0,0-10.1-3.579C445.384,341.761,441.121,341.329,436.932,342.729Z" transform="translate(-324.085 -286.877)"/><ellipse class="g" cx="5.847" cy="5.802" rx="5.847" ry="5.802" transform="translate(116.358 19.246)"/><path class="j" d="M550.033,244.765a7.051,7.051,0,0,1-2.952-1.068,4.267,4.267,0,0,1-1.8-2.493,14.125,14.125,0,0,0-.416-2.474,22.42,22.42,0,0,1-3.274,1.318,5.3,5.3,0,0,0-1.81.794c-1.106.893-1.169,2.518-1.139,3.931a2.6,2.6,0,0,0,.105.829,2.086,2.086,0,0,0,.456.682c1.2,1.276,3.071,1.806,4.21,3.145a4.461,4.461,0,0,0-1.1,2.358,8.26,8.26,0,0,1-.15,1.049,6.442,6.442,0,0,1-.344.833,15.5,15.5,0,0,0-.826,5.379,8.125,8.125,0,0,1-1.67,5.106,2.778,2.778,0,0,0,1.9.764c.727.067,1.481-.028,2.222,0a24.578,24.578,0,0,1,5.686,1.367c1.885.518,4.025.729,5.693-.285.585-.355,1.081-.845,1.668-1.2a8.251,8.251,0,0,1,2.339-.822l.292-9.691a16.355,16.355,0,0,1,.147-2.031c.423-2.65,2.128-4.894,3.78-7.018a6.416,6.416,0,0,0-2.968-4.781,12.765,12.765,0,0,0-2.339-1.077l-1.923-.733a1.078,1.078,0,0,0-.547-.1c-.416.074-.575.578-.6,1-.037.659.061,1.32.037,1.98a2.667,2.667,0,0,1-.66,1.822,3.178,3.178,0,0,1-1.169.659A5.65,5.65,0,0,1,550.033,244.765Z" transform="translate(-428.001 -207.618)"/><path class="g" d="M541.634,345.2a16.9,16.9,0,0,1-.066,3.876,5.771,5.771,0,0,1-1.735,3.4c-.755.661-1.817,1.16-2,2.151a1.152,1.152,0,0,0,.051.65,1.248,1.248,0,0,0,1.347.624,3.15,3.15,0,0,0,1.4-.729,30.929,30.929,0,0,0,2.325-2.089,5.51,5.51,0,0,0,1.6-2.154,5.276,5.276,0,0,0,.189-1.258c.152-2.321.192-4.642.234-6.962a12.858,12.858,0,0,0-.58-5c.094.232-2.185.453-2.358.464-.982.086-.8.487-.739,1.406Q541.468,342.393,541.634,345.2Z" transform="translate(-427.362 -283.761)"/><path class="g" d="M616,345.2a16.909,16.909,0,0,0,.065,3.876,5.772,5.772,0,0,0,1.736,3.4c.755.661,1.817,1.16,2,2.151a1.151,1.151,0,0,1-.051.65,1.248,1.248,0,0,1-1.347.624,3.15,3.15,0,0,1-1.4-.729,30.911,30.911,0,0,1-2.325-2.089,5.51,5.51,0,0,1-1.6-2.154,5.279,5.279,0,0,1-.189-1.258c-.152-2.321-.192-4.642-.234-6.962a12.86,12.86,0,0,1,.58-5c-.094.232,2.185.453,2.358.464.982.086.8.487.739,1.406Q616.177,342.393,616,345.2Z" transform="translate(-484.699 -283.761)"/><path class="d" d="M540.072,261.7a11.61,11.61,0,0,0,.353,7.512,3.889,3.889,0,0,1,.351,1.829,5.711,5.711,0,0,1-.29.928,4.363,4.363,0,0,0-.126,2.253,1.406,1.406,0,0,0,.26.622,2.882,2.882,0,0,1,.234.269c.32.5-.309,1.112-.234,1.7.056.487.554.775.9,1.126.985.991.8,2.6.538,3.973,1.2-.1,2.227-1.074,3.424-1a2.046,2.046,0,0,1,1.764,1.348,25.364,25.364,0,0,1,.468-3.275c.133-1.492-.84-2.829-1.31-4.249-.685-2.07-.3-4.319-.468-6.5a21.55,21.55,0,0,0-.356-2.411,4.279,4.279,0,0,0-1.455-2.9C542.928,262.136,541.123,262.7,540.072,261.7Z" transform="translate(-428.736 -225.399)"/><path class="j" d="M539.072,259.7a11.61,11.61,0,0,0,.353,7.512,3.889,3.889,0,0,1,.351,1.829,5.724,5.724,0,0,1-.29.928,4.364,4.364,0,0,0-.126,2.253,1.405,1.405,0,0,0,.26.622,2.891,2.891,0,0,1,.234.269c.32.5-.309,1.112-.234,1.7.056.487.554.775.9,1.126.985.991.8,2.6.538,3.973,1.2-.1,2.227-1.075,3.424-1a2.046,2.046,0,0,1,1.763,1.348,25.374,25.374,0,0,1,.468-3.275c.133-1.492-.84-2.829-1.31-4.249-.685-2.07-.3-4.319-.468-6.5a21.537,21.537,0,0,0-.356-2.411,4.279,4.279,0,0,0-1.455-2.9C541.928,260.136,540.123,260.7,539.072,259.7Z" transform="translate(-427.97 -223.863)"/><path class="d" d="M614.5,261.7a11.611,11.611,0,0,1-.353,7.512,3.888,3.888,0,0,0-.351,1.829,5.735,5.735,0,0,0,.29.928,4.363,4.363,0,0,1,.126,2.253,1.4,1.4,0,0,1-.26.622,2.9,2.9,0,0,0-.234.269c-.32.5.309,1.112.234,1.7-.056.487-.554.775-.9,1.126-.985.991-.8,2.6-.538,3.973-1.2-.1-2.227-1.074-3.424-1a2.047,2.047,0,0,0-1.764,1.348,25.386,25.386,0,0,0-.468-3.275c-.133-1.492.84-2.829,1.31-4.249.685-2.07.3-4.319.468-6.5a21.573,21.573,0,0,1,.351-2.4,4.279,4.279,0,0,1,1.455-2.9C611.647,262.136,613.453,262.7,614.5,261.7Z" transform="translate(-480.257 -225.399)"/><path class="j" d="M615.5,259.7a11.611,11.611,0,0,1-.353,7.512,3.889,3.889,0,0,0-.351,1.829,5.718,5.718,0,0,0,.29.928,4.363,4.363,0,0,1,.126,2.253,1.405,1.405,0,0,1-.26.622,2.886,2.886,0,0,0-.234.269c-.32.5.309,1.112.234,1.7-.056.487-.554.775-.9,1.126-.985.991-.8,2.6-.538,3.973-1.2-.1-2.227-1.075-3.424-1a2.046,2.046,0,0,0-1.764,1.348,25.374,25.374,0,0,0-.468-3.275c-.133-1.492.84-2.829,1.31-4.249.685-2.07.3-4.319.468-6.5a21.558,21.558,0,0,1,.351-2.4,4.279,4.279,0,0,1,1.455-2.9C612.647,260.136,614.453,260.7,615.5,259.7Z" transform="translate(-481.023 -223.863)"/><ellipse class="b" cx="7.017" cy="4.642" rx="7.017" ry="4.642" transform="translate(115.072 14.953)"/><path class="h" d="M561.068,284.969a3.26,3.26,0,0,1,3.041-3.249h-.234a3.249,3.249,0,1,0,0,6.5,1.56,1.56,0,0,0,.234-.012A3.26,3.26,0,0,1,561.068,284.969Z" transform="translate(-444.827 -240.773)"/><ellipse class="j" cx="2.573" cy="3.249" rx="2.573" ry="3.249" transform="translate(116.241 40.945)"/><path class="h" d="M609.641,284.969a3.26,3.26,0,0,0-3.041-3.249h.234a3.249,3.249,0,1,1,0,6.5,1.592,1.592,0,0,1-.234-.012A3.26,3.26,0,0,0,609.641,284.969Z" transform="translate(-480.068 -240.773)"/><ellipse class="j" cx="2.573" cy="3.249" rx="2.573" ry="3.249" transform="translate(124.427 40.945)"/><path class="d" d="M564.617,193.129c-3.756,0-6.825-1.954-7.017-4.409v.232c0,2.553,3.143,4.642,7.017,4.642s7.017-2.089,7.017-4.642v-.232C571.444,191.175,568.375,193.129,564.617,193.129Z" transform="translate(-442.528 -169.356)"/><path class="a" d="M321.79,113.2l-3.63,2.286,2.2-3.978a3.608,3.608,0,0,0-2.194-.777h-.058a4.262,4.262,0,0,1-.753-.053l-1.23.773.526-.951a4.375,4.375,0,0,1-2.152-1.625l-2.2,1.392,1.4-2.513a6.462,6.462,0,0,0-4.933-2.474,6.771,6.771,0,0,0-5.646,3.458,4.218,4.218,0,0,1-3.742,2h-.122c-2.528,0-4.577,2.845-4.577,6.352s2.049,6.352,4.577,6.352a3.462,3.462,0,0,0,1.593-.395,6.653,6.653,0,0,1,5.541-.109,5.82,5.82,0,0,0,4.71,0,6.659,6.659,0,0,1,5.489.1,3.464,3.464,0,0,0,1.579.388c2.528,0,4.577-2.843,4.577-6.352A8.018,8.018,0,0,0,321.79,113.2Z" transform="translate(-241.102 -105.28)"/><path class="k" d="M314.949,149.895a6.808,6.808,0,0,0-3.922.425,5.816,5.816,0,0,1-4.708,0,6.654,6.654,0,0,0-5.541.107,3.436,3.436,0,0,1-1.593.4c-2.248,0-4.114-2.244-4.5-5.205a4.29,4.29,0,0,0,1.123-1.2,6.329,6.329,0,0,1,11.259-.037,4.34,4.34,0,0,0,3.73,2.033h.058C312.647,146.4,314.2,147.823,314.949,149.895Z" transform="translate(-241.102 -132.68)"/><path class="a" d="M896.273,297.945l-1.81,1.139,1.1-1.982a1.8,1.8,0,0,0-1.1-.388h-.028a2.265,2.265,0,0,1-.377-.028l-.613.385.262-.464a2.2,2.2,0,0,1-1.074-.81l-1.1.7.7-1.251a3.224,3.224,0,0,0-2.47-1.244,3.353,3.353,0,0,0-2.807,1.724,2.109,2.109,0,0,1-1.871,1h-.061c-1.261,0-2.283,1.418-2.283,3.168s1.022,3.163,2.283,3.163a1.722,1.722,0,0,0,.8-.2,3.321,3.321,0,0,1,2.765-.053,2.9,2.9,0,0,0,2.339,0,3.316,3.316,0,0,1,2.739.053,1.715,1.715,0,0,0,.786.193c1.261,0,2.283-1.418,2.283-3.168A4.019,4.019,0,0,0,896.273,297.945Z" transform="translate(-691.631 -250.203)"/><path class="k" d="M892.912,316.233a3.4,3.4,0,0,0-1.958.211,2.891,2.891,0,0,1-1.169.246,2.922,2.922,0,0,1-1.17-.251,3.3,3.3,0,0,0-2.762.053,1.729,1.729,0,0,1-.8.2c-1.12,0-2.054-1.121-2.248-2.6a2.155,2.155,0,0,0,.561-.6,3.154,3.154,0,0,1,5.613-.019,2.165,2.165,0,0,0,1.871,1.014h.03A2.348,2.348,0,0,1,892.912,316.233Z" transform="translate(-691.677 -263.849)"/><path class="a" d="M779.2,175.936l2.91,1.831-1.766-3.186a2.888,2.888,0,0,1,1.759-.624h.047a3.49,3.49,0,0,0,.6-.046l.985.622-.421-.764a3.506,3.506,0,0,0,1.724-1.314l1.763,1.109-1.113-2.01a5.172,5.172,0,0,1,3.953-1.984,5.424,5.424,0,0,1,4.523,2.771,3.389,3.389,0,0,0,2.989,1.6h.1c2.025,0,3.665,2.279,3.665,5.089s-1.637,5.089-3.665,5.089a2.778,2.778,0,0,1-1.279-.316,5.326,5.326,0,0,0-4.444-.088,4.661,4.661,0,0,1-3.775,0,5.328,5.328,0,0,0-4.4.086,2.772,2.772,0,0,1-1.263.309c-2.025,0-3.667-2.279-3.667-5.089A6.418,6.418,0,0,1,779.2,175.936Z" transform="translate(-611.709 -154.65)"/><path class="k" d="M805.17,205.286a5.444,5.444,0,0,1,3.141.339,4.661,4.661,0,0,0,3.775,0,5.335,5.335,0,0,1,4.444.086,2.768,2.768,0,0,0,1.279.318c1.8,0,3.3-1.8,3.607-4.177a3.476,3.476,0,0,1-.9-.963,5.077,5.077,0,0,0-9.028-.03,3.48,3.48,0,0,1-2.989,1.625h-.047A3.8,3.8,0,0,0,805.17,205.286Z" transform="translate(-632.195 -176.574)"/><path class="l" d="M279.035,630.021c-.966-1.773.129-3.945,1.387-5.526s2.795-3.228,2.762-5.243c-.047-2.9-3.146-4.607-5.613-6.141a27.326,27.326,0,0,1-5.043-4.017,7.312,7.312,0,0,1-1.551-2.059,8.332,8.332,0,0,1-.468-3.662q.161-6.2.617-12.384" transform="translate(-222.575 -478.268)"/><path class="m" d="M253.064,575.737a4.5,4.5,0,0,1,2.273-3.713l1.017,2-.035-2.411a4.512,4.512,0,1,1-3.256,4.126Z" transform="translate(-209.215 -463.245)"/><path class="m" d="M286.135,699.91a4.519,4.519,0,1,0-.22-3.637l2.842,2.3-3.127-.719A4.421,4.421,0,0,0,286.135,699.91Z" transform="translate(-234.168 -556.856)"/><path class="m" d="M283.177,654.013a4.513,4.513,0,0,0,1.443-8.861l.023,1.857-1.031-2.026H283.6a4.518,4.518,0,1,0-.423,9.026Z" transform="translate(-228.962 -519.727)"/><path class="m" d="M235.945,622.6a4.553,4.553,0,0,0,4.429-2.819,4.493,4.493,0,0,0-1.211-5.081,4.579,4.579,0,0,0-5.232-.552l.8,2.188-1.654-1.578a4.483,4.483,0,0,0-1.471,3.119,4.376,4.376,0,0,0,.115,1.244A4.54,4.54,0,0,0,235.945,622.6Z" transform="translate(-192.779 -495.608)"/><path class="d" d="M254.015,585.115c1.05.116,2.072.439,3.127.5a3.411,3.411,0,0,0,2.877-1,14.252,14.252,0,0,0,.844-1.469,3.222,3.222,0,0,1,1.146-1.072,4.488,4.488,0,0,1-.476,4.82,4.563,4.563,0,0,1-8.033-1.822A4.684,4.684,0,0,1,254.015,585.115Z" transform="translate(-209.553 -471.426)"/><path class="d" d="M236.309,631.152a4.565,4.565,0,0,0,4-2.007,4.489,4.489,0,0,0,.329-4.436,3.341,3.341,0,0,0-.917.91,14.394,14.394,0,0,1-.9,1.492,3.729,3.729,0,0,1-3.019,1.047c-1.1-.051-2.159-.357-3.253-.464-.15-.014-.3-.023-.468-.028A4.54,4.54,0,0,0,236.309,631.152Z" transform="translate(-193.143 -504.163)"/><path class="d" d="M283.84,662.869a4.563,4.563,0,0,0,3.975-1.968,4.487,4.487,0,0,0,.392-4.391,3.654,3.654,0,0,0-.964.928,15.145,15.145,0,0,1-.987,1.522,4.185,4.185,0,0,1-3.223,1.121c-1.127-.023-2.213-.3-3.333-.383A4.55,4.55,0,0,0,283.84,662.869Z" transform="translate(-229.625 -528.583)"/><path class="d" d="M287.79,709.5a4.568,4.568,0,0,0,5.907,2.055,4.5,4.5,0,0,0,2.389-5.741,4.563,4.563,0,0,0-1,.884,17.709,17.709,0,0,1-1.219,1.6,5.736,5.736,0,0,1-3.77,1.316A20.031,20.031,0,0,1,287.79,709.5Z" transform="translate(-235.823 -566.442)"/><path class="l" d="M862.822,656.21c-.7-1.309.1-2.915,1.027-4.082s2.063-2.383,2.037-3.871c-.033-2.14-2.322-3.4-4.149-4.537a20.152,20.152,0,0,1-3.728-2.975,5.469,5.469,0,0,1-1.146-1.522,6.159,6.159,0,0,1-.344-2.7q.119-4.577.468-9.148" transform="translate(-671.527 -506.206)"/><path class="m" d="M843.64,616.136a3.339,3.339,0,0,1,1.679-2.734l.753,1.478-.023-1.789a3.434,3.434,0,0,1,1.109-.132,3.337,3.337,0,1,1-3.508,3.177Z" transform="translate(-661.668 -495.136)"/><path class="m" d="M868.077,707.912a3.337,3.337,0,1,0-.164-2.685l2.1,1.7-2.308-.531A3.275,3.275,0,0,0,868.077,707.912Z" transform="translate(-680.108 -564.322)"/><path class="m" d="M865.872,673.91a3.353,3.353,0,0,0,3.508-3.177,3.271,3.271,0,0,0-.29-1.518,3.362,3.362,0,0,0-2.159-1.857l.016,1.376-.76-1.5h0a3.34,3.34,0,1,0-.316,6.672Z" transform="translate(-676.242 -536.818)"/><path class="m" d="M830.984,650.747a3.365,3.365,0,0,0,3.279-2.08,3.32,3.32,0,0,0-.894-3.758,3.384,3.384,0,0,0-3.87-.4l.594,1.624-1.223-1.16a3.3,3.3,0,0,0-1.085,2.3,3.223,3.223,0,0,0,.084.928,3.355,3.355,0,0,0,3.115,2.548Z" transform="translate(-649.517 -519.035)"/><path class="d" d="M844.37,623.072c.774.086,1.53.325,2.308.374a2.52,2.52,0,0,0,2.126-.738,9.952,9.952,0,0,0,.622-1.086,2.4,2.4,0,0,1,.847-.791,3.313,3.313,0,0,1-.173,3.323,3.364,3.364,0,0,1-6.1-1.109C844.115,623.049,844.234,623.058,844.37,623.072Z" transform="translate(-661.944 -501.183)"/><path class="d" d="M831.275,657.078a3.374,3.374,0,0,0,2.954-1.482,3.318,3.318,0,0,0,.246-3.275,2.512,2.512,0,0,0-.678.671,9.943,9.943,0,0,1-.664,1.1,2.766,2.766,0,0,1-2.231.775c-.812-.037-1.593-.267-2.4-.339-.112-.012-.234-.019-.339-.021A3.354,3.354,0,0,0,831.275,657.078Z" transform="translate(-649.808 -525.365)"/><path class="d" d="M866.375,680.465a3.353,3.353,0,0,0,3.508-3.177,3.272,3.272,0,0,0-.29-1.518,2.7,2.7,0,0,0-.7.678,11.419,11.419,0,0,1-.73,1.123,3.126,3.126,0,0,1-2.381.828c-.861-.021-1.637-.221-2.461-.283A3.354,3.354,0,0,0,866.375,680.465Z" transform="translate(-676.745 -543.373)"/><path class="d" d="M869.28,715a3.375,3.375,0,0,0,4.358,1.509,4.271,4.271,0,1,0,1.033-3.577,13.58,13.58,0,0,1-.9,1.186,4.235,4.235,0,0,1-2.783.97A14.374,14.374,0,0,1,869.28,715Z" transform="translate(-681.311 -571.41)"/><path class="l" d="M991.576,637.028c.966-1.773-.129-3.945-1.387-5.526s-2.807-3.228-2.762-5.243c.047-2.9,3.146-4.607,5.613-6.141a27.324,27.324,0,0,0,5.045-4.017,7.312,7.312,0,0,0,1.551-2.059,8.334,8.334,0,0,0,.468-3.662q-.147-6.206-.615-12.381" transform="translate(-771.824 -483.652)"/><path class="m" d="M1029.327,582.714a4.508,4.508,0,0,0-2.273-3.713l-1.02,2,.033-2.421a4.511,4.511,0,1,0,3.26,4.133Z" transform="translate(-796.955 -468.598)"/><path class="m" d="M996.254,706.91a4.519,4.519,0,1,1,.22-3.637l-2.842,2.3,3.127-.719A4.42,4.42,0,0,1,996.254,706.91Z" transform="translate(-772 -562.231)"/><path class="m" d="M999.184,661.013a4.514,4.514,0,0,1-1.443-8.861l-.023,1.857,1.043-2.026h0a4.518,4.518,0,1,1,.423,9.026Z" transform="translate(-777.178 -525.103)"/><path class="m" d="M1046.455,629.6a4.554,4.554,0,0,1-4.429-2.819,4.493,4.493,0,0,1,1.211-5.081,4.579,4.579,0,0,1,5.232-.552l-.8,2.189,1.654-1.578a4.492,4.492,0,0,1,1.205,4.869A4.548,4.548,0,0,1,1046.455,629.6Z" transform="translate(-813.4 -500.984)"/><path class="d" d="M1028.719,592.115c-1.05.116-2.072.439-3.127.5a3.411,3.411,0,0,1-2.877-1,14.246,14.246,0,0,1-.844-1.469,3.222,3.222,0,0,0-1.146-1.072,4.488,4.488,0,0,0,.476,4.82,4.563,4.563,0,0,0,8.033-1.822A4.905,4.905,0,0,0,1028.719,592.115Z" transform="translate(-796.959 -476.802)"/><path class="d" d="M1046.442,638.152a4.565,4.565,0,0,1-4-2.007,4.489,4.489,0,0,1-.329-4.436,3.34,3.34,0,0,1,.917.91,14.376,14.376,0,0,0,.9,1.492,3.727,3.727,0,0,0,3.019,1.047c1.1-.051,2.159-.357,3.253-.464.15-.014.3-.023.468-.028A4.54,4.54,0,0,1,1046.442,638.152Z" transform="translate(-813.387 -509.538)"/><path class="d" d="M999.2,669.869a4.563,4.563,0,0,1-3.975-1.968,4.486,4.486,0,0,1-.392-4.391,3.654,3.654,0,0,1,.964.928,15.126,15.126,0,0,0,.987,1.522,4.185,4.185,0,0,0,3.223,1.121c1.127-.023,2.213-.3,3.333-.383A4.55,4.55,0,0,1,999.2,669.869Z" transform="translate(-777.195 -533.958)"/><path class="d" d="M996.384,716.5a4.568,4.568,0,0,1-5.869,1.978,4.5,4.5,0,0,1-2.416-5.664,4.561,4.561,0,0,1,1,.884,17.713,17.713,0,0,0,1.219,1.6,5.735,5.735,0,0,0,3.77,1.316A20.021,20.021,0,0,0,996.384,716.5Z" transform="translate(-772.13 -571.817)"/><path class="n" d="M276.83,747s3.59-.111,4.678-.875,5.527-1.678,5.8-.464,5.4,6.1,1.342,6.134-9.423-.627-10.5-1.279S276.83,747,276.83,747Z" transform="translate(-227.426 -596.588)"/><path class="o" d="M288.714,757.744c-4.056.032-9.423-.627-10.5-1.279-.823-.5-1.151-2.281-1.261-3.105h-.119s.234,2.873,1.307,3.528,6.448,1.311,10.5,1.279c1.169,0,1.574-.422,1.553-1.033C290.03,757.507,289.586,757.737,288.714,757.744Z" transform="translate(-227.426 -602.956)"/><path class="n" d="M865,747.76a7.683,7.683,0,0,0,2.729-.511c.624-.448,3.225-.979,3.382-.262s3.15,3.56.783,3.579-5.5-.364-6.132-.747S865,747.76,865,747.76Z" transform="translate(-678.032 -597.793)"/><path class="o" d="M871.928,754.03c-2.367.019-5.5-.367-6.132-.747-.468-.29-.671-1.332-.734-1.812H865s.133,1.678.763,2.059,3.765.768,6.132.747c.683,0,.919-.246.905-.6C872.7,753.891,872.435,754.025,871.928,754.03Z" transform="translate(-678.032 -601.505)"/><path class="n" d="M975.83,751s3.59-.111,4.678-.875,5.527-1.678,5.8-.464,5.4,6.1,1.343,6.134-9.423-.627-10.5-1.279S975.83,751,975.83,751Z" transform="translate(-762.941 -599.66)"/><path class="o" d="M987.714,761.744c-4.056.032-9.423-.627-10.5-1.279-.823-.5-1.151-2.281-1.261-3.105h-.119s.234,2.873,1.307,3.528,6.448,1.311,10.5,1.279c1.169,0,1.574-.422,1.553-1.033C989.031,761.507,988.586,761.737,987.714,761.744Z" transform="translate(-762.941 -606.028)"/></g></svg>